<?xml version="1.0" encoding="UTF-8" standalone="no"?>
<!-- Created with Inkscape (http://www.inkscape.org/) -->

<svg
   xmlns:dc="http://purl.org/dc/elements/1.1/"
   xmlns:cc="http://creativecommons.org/ns#"
   xmlns:rdf="http://www.w3.org/1999/02/22-rdf-syntax-ns#"
   xmlns:svg="http://www.w3.org/2000/svg"
   xmlns="http://www.w3.org/2000/svg"
   xmlns:xlink="http://www.w3.org/1999/xlink"
   xmlns:sodipodi="http://sodipodi.sourceforge.net/DTD/sodipodi-0.dtd"
   xmlns:inkscape="http://www.inkscape.org/namespaces/inkscape"
   width="8.5in"
   height="11in"
   viewBox="0 0 765.00001 990.00003"
   id="svg2"
   version="1.1"
   inkscape:version="0.91 r13725"
   sodipodi:docname="bed of holes template.svg">
  <defs
     id="defs4" />
  <sodipodi:namedview
     id="base"
     pagecolor="#ffffff"
     bordercolor="#666666"
     borderopacity="1.0"
     inkscape:pageopacity="0.0"
     inkscape:pageshadow="2"
     inkscape:zoom="0.98994949"
     inkscape:cx="166.63295"
     inkscape:cy="391.23785"
     inkscape:document-units="in"
     inkscape:current-layer="layer1"
     showgrid="false"
     units="in"
     inkscape:window-width="2024"
     inkscape:window-height="1215"
     inkscape:window-x="100"
     inkscape:window-y="100"
     inkscape:window-maximized="0" />
  <metadata
     id="metadata7">
    <rdf:RDF>
      <cc:Work
         rdf:about="">
        <dc:format>image/svg+xml</dc:format>
        <dc:type
           rdf:resource="http://purl.org/dc/dcmitype/StillImage" />
        <dc:title></dc:title>
      </cc:Work>
    </rdf:RDF>
  </metadata>
  <g
     inkscape:label="Layer 1"
     inkscape:groupmode="layer"
     id="layer1"
     transform="translate(0,-62.36215)">
    <use
       x="0"
       y="0"
       inkscape:tiled-clone-of="#path4138"
       xlink:href="#path4138"
       transform="translate(9.2540206e-4,-54.000022)"
       id="use5242"
       width="100%"
       height="100%" />
    <use
       x="0"
       y="0"
       inkscape:tiled-clone-of="#path4138"
       xlink:href="#path4138"
       transform="translate(9.2540206e-4,35.999983)"
       id="use5244"
       width="100%"
       height="100%" />
    <use
       x="0"
       y="0"
       inkscape:tiled-clone-of="#path4138"
       xlink:href="#path4138"
       transform="translate(9.2540206e-4,125.99999)"
       id="use5246"
       width="100%"
       height="100%" />
    <use
       x="0"
       y="0"
       inkscape:tiled-clone-of="#path4138"
       xlink:href="#path4138"
       transform="translate(9.2540206e-4,215.99999)"
       id="use5248"
       width="100%"
       height="100%" />
    <use
       x="0"
       y="0"
       inkscape:tiled-clone-of="#path4138"
       xlink:href="#path4138"
       transform="translate(9.2540206e-4,305.99999)"
       id="use5250"
       width="100%"
       height="100%" />
    <use
       x="0"
       y="0"
       inkscape:tiled-clone-of="#path4138"
       xlink:href="#path4138"
       transform="translate(9.2540206e-4,395.99998)"
       id="use5252"
       width="100%"
       height="100%" />
    <use
       x="0"
       y="0"
       inkscape:tiled-clone-of="#path4138"
       xlink:href="#path4138"
       transform="translate(90.000923,-54.000022)"
       id="use5256"
       width="100%"
       height="100%" />
    <use
       x="0"
       y="0"
       inkscape:tiled-clone-of="#path4138"
       xlink:href="#path4138"
       transform="translate(90.000923,35.999983)"
       id="use5258"
       width="100%"
       height="100%" />
    <use
       x="0"
       y="0"
       inkscape:tiled-clone-of="#path4138"
       xlink:href="#path4138"
       transform="translate(90.000923,125.99999)"
       id="use5260"
       width="100%"
       height="100%" />
    <use
       x="0"
       y="0"
       inkscape:tiled-clone-of="#path4138"
       xlink:href="#path4138"
       transform="translate(90.000923,215.99999)"
       id="use5262"
       width="100%"
       height="100%" />
    <use
       x="0"
       y="0"
       inkscape:tiled-clone-of="#path4138"
       xlink:href="#path4138"
       transform="translate(90.000923,305.99999)"
       id="use5264"
       width="100%"
       height="100%" />
    <use
       x="0"
       y="0"
       inkscape:tiled-clone-of="#path4138"
       xlink:href="#path4138"
       transform="translate(90.000923,395.99998)"
       id="use5266"
       width="100%"
       height="100%" />
    <use
       x="0"
       y="0"
       inkscape:tiled-clone-of="#path4138"
       xlink:href="#path4138"
       transform="translate(180.00091,-54.000022)"
       id="use5270"
       width="100%"
       height="100%" />
    <use
       x="0"
       y="0"
       inkscape:tiled-clone-of="#path4138"
       xlink:href="#path4138"
       transform="translate(180.00091,35.999983)"
       id="use5272"
       width="100%"
       height="100%" />
    <use
       x="0"
       y="0"
       inkscape:tiled-clone-of="#path4138"
       xlink:href="#path4138"
       transform="translate(180.00091,125.99999)"
       id="use5274"
       width="100%"
       height="100%" />
    <use
       x="0"
       y="0"
       inkscape:tiled-clone-of="#path4138"
       xlink:href="#path4138"
       transform="translate(180.00091,215.99999)"
       id="use5276"
       width="100%"
       height="100%" />
    <use
       x="0"
       y="0"
       inkscape:tiled-clone-of="#path4138"
       xlink:href="#path4138"
       transform="translate(180.00091,305.99999)"
       id="use5278"
       width="100%"
       height="100%" />
    <use
       x="0"
       y="0"
       inkscape:tiled-clone-of="#path4138"
       xlink:href="#path4138"
       transform="translate(180.00091,395.99998)"
       id="use5280"
       width="100%"
       height="100%" />
    <use
       x="0"
       y="0"
       inkscape:tiled-clone-of="#path4138"
       xlink:href="#path4138"
       transform="translate(270.00091,-54.000022)"
       id="use5284"
       width="100%"
       height="100%" />
    <use
       x="0"
       y="0"
       inkscape:tiled-clone-of="#path4138"
       xlink:href="#path4138"
       transform="translate(270.00091,35.999983)"
       id="use5286"
       width="100%"
       height="100%" />
    <use
       x="0"
       y="0"
       inkscape:tiled-clone-of="#path4138"
       xlink:href="#path4138"
       transform="translate(270.00091,125.99999)"
       id="use5288"
       width="100%"
       height="100%" />
    <use
       x="0"
       y="0"
       inkscape:tiled-clone-of="#path4138"
       xlink:href="#path4138"
       transform="translate(270.00091,215.99999)"
       id="use5290"
       width="100%"
       height="100%" />
    <use
       x="0"
       y="0"
       inkscape:tiled-clone-of="#path4138"
       xlink:href="#path4138"
       transform="translate(270.00091,305.99999)"
       id="use5292"
       width="100%"
       height="100%" />
    <use
       x="0"
       y="0"
       inkscape:tiled-clone-of="#path4138"
       xlink:href="#path4138"
       transform="translate(270.00091,395.99998)"
       id="use5294"
       width="100%"
       height="100%" />
    <use
       x="0"
       y="0"
       inkscape:tiled-clone-of="#path4138"
       xlink:href="#path4138"
       transform="translate(360.00091,-54.000022)"
       id="use5298"
       width="100%"
       height="100%" />
    <use
       x="0"
       y="0"
       inkscape:tiled-clone-of="#path4138"
       xlink:href="#path4138"
       transform="translate(360.00091,35.999983)"
       id="use5300"
       width="100%"
       height="100%" />
    <use
       x="0"
       y="0"
       inkscape:tiled-clone-of="#path4138"
       xlink:href="#path4138"
       transform="matrix(1.4998739,0,0,1.5005581,297.0134,-85.415875)"
       id="use5302"
       width="100%"
       height="100%" />
    <use
       x="0"
       y="0"
       inkscape:tiled-clone-of="#path4138"
       xlink:href="#path4138"
       transform="translate(360.00091,215.99999)"
       id="use5304"
       width="100%"
       height="100%" />
    <use
       x="0"
       y="0"
       inkscape:tiled-clone-of="#path4138"
       xlink:href="#path4138"
       transform="translate(360.00091,305.99999)"
       id="use5306"
       width="100%"
       height="100%" />
    <use
       x="0"
       y="0"
       inkscape:tiled-clone-of="#path4138"
       xlink:href="#path4138"
       transform="translate(360.00091,395.99998)"
       id="use5308"
       width="100%"
       height="100%" />
    <use
       x="0"
       y="0"
       inkscape:tiled-clone-of="#path4138"
       xlink:href="#path4138"
       transform="translate(450.00091,-54.000022)"
       id="use5312"
       width="100%"
       height="100%" />
    <use
       x="0"
       y="0"
       inkscape:tiled-clone-of="#path4138"
       xlink:href="#path4138"
       transform="translate(450.00091,35.999983)"
       id="use5314"
       width="100%"
       height="100%" />
    <use
       x="0"
       y="0"
       inkscape:tiled-clone-of="#path4138"
       xlink:href="#path4138"
       transform="translate(450.00091,125.99999)"
       id="use5316"
       width="100%"
       height="100%" />
    <use
       x="0"
       y="0"
       inkscape:tiled-clone-of="#path4138"
       xlink:href="#path4138"
       transform="translate(450.00091,215.99999)"
       id="use5318"
       width="100%"
       height="100%" />
    <use
       x="0"
       y="0"
       inkscape:tiled-clone-of="#path4138"
       xlink:href="#path4138"
       transform="translate(450.00091,305.99999)"
       id="use5320"
       width="100%"
       height="100%" />
    <use
       x="0"
       y="0"
       inkscape:tiled-clone-of="#path4138"
       xlink:href="#path4138"
       transform="translate(450.00091,395.99998)"
       id="use5322"
       width="100%"
       height="100%" />
    <g
       id="g5338"
       transform="translate(9.2540206e-4,-144.00002)">
      <circle
         inkscape:tile-y0="71.999972"
         inkscape:tile-x0="90"
         inkscape:tile-h="17.999999"
         inkscape:tile-w="17.999999"
         inkscape:tile-cy="80.999972"
         inkscape:tile-cx="99"
         r="8.9818125"
         cy="413.36212"
         cx="99"
         id="path4138"
         style="opacity:1;fill:#000000;fill-opacity:1;stroke:#f7bd13;stroke-width:0.03637448;stroke-miterlimit:4;stroke-dasharray:none;stroke-opacity:1" />
      <use
         id="use5240"
         xlink:href="#path4138"
         inkscape:tiled-clone-of="#path4138"
         y="0"
         x="0"
         width="100%"
         height="100%" />
      <use
         id="use5254"
         transform="translate(89.999997,0)"
         xlink:href="#path4138"
         inkscape:tiled-clone-of="#path4138"
         y="0"
         x="0"
         width="100%"
         height="100%" />
      <use
         id="use5268"
         transform="translate(179.99999,0)"
         xlink:href="#path4138"
         inkscape:tiled-clone-of="#path4138"
         y="0"
         x="0"
         width="100%"
         height="100%" />
      <use
         id="use5282"
         transform="translate(269.99999,0)"
         xlink:href="#path4138"
         inkscape:tiled-clone-of="#path4138"
         y="0"
         x="0"
         width="100%"
         height="100%" />
      <use
         id="use5296"
         transform="translate(359.99999,0)"
         xlink:href="#path4138"
         inkscape:tiled-clone-of="#path4138"
         y="0"
         x="0"
         width="100%"
         height="100%" />
      <use
         id="use5310"
         transform="translate(449.99999,0)"
         xlink:href="#path4138"
         inkscape:tiled-clone-of="#path4138"
         y="0"
         x="0"
         width="100%"
         height="100%" />
      <use
         id="use5324"
         transform="translate(539.99998,0)"
         xlink:href="#path4138"
         inkscape:tiled-clone-of="#path4138"
         y="0"
         x="0"
         width="100%"
         height="100%" />
    </g>
    <use
       x="0"
       y="0"
       inkscape:tiled-clone-of="#path4138"
       xlink:href="#path4138"
       transform="translate(540.0009,-54.000022)"
       id="use5326"
       width="100%"
       height="100%" />
    <use
       x="0"
       y="0"
       inkscape:tiled-clone-of="#path4138"
       xlink:href="#path4138"
       transform="translate(540.0009,35.999983)"
       id="use5328"
       width="100%"
       height="100%" />
    <use
       x="0"
       y="0"
       inkscape:tiled-clone-of="#path4138"
       xlink:href="#path4138"
       transform="translate(540.0009,125.99999)"
       id="use5330"
       width="100%"
       height="100%" />
    <use
       x="0"
       y="0"
       inkscape:tiled-clone-of="#path4138"
       xlink:href="#path4138"
       transform="translate(540.0009,215.99999)"
       id="use5332"
       width="100%"
       height="100%" />
    <use
       x="0"
       y="0"
       inkscape:tiled-clone-of="#path4138"
       xlink:href="#path4138"
       transform="translate(540.0009,305.99999)"
       id="use5334"
       width="100%"
       height="100%" />
    <use
       x="0"
       y="0"
       inkscape:tiled-clone-of="#path4138"
       xlink:href="#path4138"
       transform="translate(540.0009,395.99998)"
       id="use5336"
       width="100%"
       height="100%" />
    <circle
       inkscape:tile-y0="71.999972"
       inkscape:tile-x0="90"
       inkscape:tile-h="17.999999"
       inkscape:tile-w="17.999999"
       inkscape:tile-cy="80.999972"
       inkscape:tile-cx="99"
       r="8.9818125"
       cy="224.36215"
       cx="54.000927"
       id="circle5350"
       style="opacity:1;fill:#000000;fill-opacity:1;stroke:#f7bd13;stroke-width:0.03637448;stroke-miterlimit:4;stroke-dasharray:none;stroke-opacity:1" />
    <use
       height="100%"
       width="100%"
       id="use5352"
       xlink:href="#path4138"
       inkscape:tiled-clone-of="#path4138"
       y="0"
       x="0"
       transform="matrix(1.499316,0,0,1.5005585,-89.93638,-400.41601)" />
    <use
       height="100%"
       width="100%"
       id="use5354"
       transform="translate(45.000923,-188.99998)"
       xlink:href="#path4138"
       inkscape:tiled-clone-of="#path4138"
       y="0"
       x="0" />
    <use
       height="100%"
       width="100%"
       id="use5356"
       transform="translate(135.00091,-188.99998)"
       xlink:href="#path4138"
       inkscape:tiled-clone-of="#path4138"
       y="0"
       x="0" />
    <use
       height="100%"
       width="100%"
       id="use5358"
       transform="translate(225.00091,-188.99998)"
       xlink:href="#path4138"
       inkscape:tiled-clone-of="#path4138"
       y="0"
       x="0" />
    <use
       height="100%"
       width="100%"
       id="use5360"
       transform="translate(315.00091,-188.99998)"
       xlink:href="#path4138"
       inkscape:tiled-clone-of="#path4138"
       y="0"
       x="0" />
    <use
       height="100%"
       width="100%"
       id="use5362"
       transform="translate(405.00091,-188.99998)"
       xlink:href="#path4138"
       inkscape:tiled-clone-of="#path4138"
       y="0"
       x="0" />
    <use
       height="100%"
       width="100%"
       id="use5364"
       transform="translate(495.0009,-188.99998)"
       xlink:href="#path4138"
       inkscape:tiled-clone-of="#path4138"
       y="0"
       x="0" />
    <circle
       style="opacity:1;fill:#000000;fill-opacity:1;stroke:#f7bd13;stroke-width:0.03637448;stroke-miterlimit:4;stroke-dasharray:none;stroke-opacity:1"
       id="circle5388"
       cx="-854.36212"
       cy="54.000927"
       r="8.9818125"
       inkscape:tile-cx="99"
       inkscape:tile-cy="80.999972"
       inkscape:tile-w="17.999999"
       inkscape:tile-h="17.999999"
       inkscape:tile-x0="90"
       inkscape:tile-y0="71.999972"
       transform="matrix(0,-1,1,0,0,0)" />
    <use
       x="0"
       y="0"
       inkscape:tiled-clone-of="#path4138"
       xlink:href="#path4138"
       id="use5390"
       width="100%"
       height="100%"
       transform="matrix(0,-1.4998739,1.5005581,0,-561.76886,998.3497)" />
    <use
       x="0"
       y="0"
       inkscape:tiled-clone-of="#path4138"
       xlink:href="#path4138"
       transform="matrix(0,-1,1,0,-359.3612,863.3622)"
       id="use5392"
       width="100%"
       height="100%" />
    <use
       x="0"
       y="0"
       inkscape:tiled-clone-of="#path4138"
       xlink:href="#path4138"
       transform="matrix(0,-1,1,0,-359.3612,773.36221)"
       id="use5394"
       width="100%"
       height="100%" />
    <use
       x="0"
       y="0"
       inkscape:tiled-clone-of="#path4138"
       xlink:href="#path4138"
       transform="matrix(0,-1,1,0,-359.3612,683.36221)"
       id="use5396"
       width="100%"
       height="100%" />
    <use
       x="0"
       y="0"
       inkscape:tiled-clone-of="#path4138"
       xlink:href="#path4138"
       transform="matrix(0,-1,1,0,-359.3612,593.36221)"
       id="use5398"
       width="100%"
       height="100%" />
    <use
       x="0"
       y="0"
       inkscape:tiled-clone-of="#path4138"
       xlink:href="#path4138"
       transform="matrix(0,-1,1,0,-359.3612,503.36221)"
       id="use5400"
       width="100%"
       height="100%" />
    <use
       x="0"
       y="0"
       inkscape:tiled-clone-of="#path4138"
       xlink:href="#path4138"
       transform="matrix(0,-1,1,0,-359.3612,413.36222)"
       id="use5402"
       width="100%"
       height="100%" />
    <circle
       inkscape:tile-y0="71.999972"
       inkscape:tile-x0="90"
       inkscape:tile-h="17.999999"
       inkscape:tile-w="17.999999"
       inkscape:tile-cy="80.999972"
       inkscape:tile-cx="99"
       r="8.9818125"
       cy="854.36212"
       cx="144.00092"
       id="circle5406"
       style="opacity:1;fill:#000000;fill-opacity:1;stroke:#f7bd13;stroke-width:0.03637448;stroke-miterlimit:4;stroke-dasharray:none;stroke-opacity:1" />
    <use
       height="100%"
       width="100%"
       id="use5408"
       xlink:href="#path4138"
       inkscape:tiled-clone-of="#path4138"
       y="0"
       x="0"
       transform="translate(45.000926,441.00003)" />
    <use
       height="100%"
       width="100%"
       id="use5410"
       transform="translate(135.00092,441.00003)"
       xlink:href="#path4138"
       inkscape:tiled-clone-of="#path4138"
       y="0"
       x="0" />
    <use
       height="100%"
       width="100%"
       id="use5412"
       transform="translate(225.00091,441.00003)"
       xlink:href="#path4138"
       inkscape:tiled-clone-of="#path4138"
       y="0"
       x="0" />
    <use
       height="100%"
       width="100%"
       id="use5414"
       transform="translate(315.00091,441.00003)"
       xlink:href="#path4138"
       inkscape:tiled-clone-of="#path4138"
       y="0"
       x="0" />
    <use
       height="100%"
       width="100%"
       id="use5416"
       transform="translate(405.00091,441.00003)"
       xlink:href="#path4138"
       inkscape:tiled-clone-of="#path4138"
       y="0"
       x="0" />
    <use
       height="100%"
       width="100%"
       id="use5418"
       transform="translate(495.00091,441.00003)"
       xlink:href="#path4138"
       inkscape:tiled-clone-of="#path4138"
       y="0"
       x="0" />
    <use
       height="100%"
       width="100%"
       id="use5420"
       transform="matrix(1.5005581,0,0,1.4998739,539.94974,229.87107)"
       xlink:href="#path4138"
       inkscape:tiled-clone-of="#path4138"
       y="0"
       x="0" />
    <circle
       style="opacity:1;fill:#000000;fill-opacity:1;stroke:#f7bd13;stroke-width:0.03637448;stroke-miterlimit:4;stroke-dasharray:none;stroke-opacity:1"
       id="circle5424"
       cx="-764.36212"
       cy="684.00092"
       r="8.9818125"
       inkscape:tile-cx="99"
       inkscape:tile-cy="80.999972"
       inkscape:tile-w="17.999999"
       inkscape:tile-h="17.999999"
       inkscape:tile-x0="90"
       inkscape:tile-y0="71.999972"
       transform="matrix(0,-1,1,0,0,0)" />
    <use
       x="0"
       y="0"
       inkscape:tiled-clone-of="#path4138"
       xlink:href="#path4138"
       id="use5426"
       width="100%"
       height="100%"
       transform="matrix(0,-1,1,0,270.6388,863.3622)" />
    <use
       x="0"
       y="0"
       inkscape:tiled-clone-of="#path4138"
       xlink:href="#path4138"
       transform="matrix(0,-1,1,0,270.6388,773.3622)"
       id="use5428"
       width="100%"
       height="100%" />
    <use
       x="0"
       y="0"
       inkscape:tiled-clone-of="#path4138"
       xlink:href="#path4138"
       transform="matrix(0,-1,1,0,270.6388,683.36221)"
       id="use5430"
       width="100%"
       height="100%" />
    <use
       x="0"
       y="0"
       inkscape:tiled-clone-of="#path4138"
       xlink:href="#path4138"
       transform="matrix(0,-1,1,0,270.6388,593.36221)"
       id="use5432"
       width="100%"
       height="100%" />
    <use
       x="0"
       y="0"
       inkscape:tiled-clone-of="#path4138"
       xlink:href="#path4138"
       transform="matrix(0,-1,1,0,270.6388,503.36221)"
       id="use5434"
       width="100%"
       height="100%" />
    <use
       x="0"
       y="0"
       inkscape:tiled-clone-of="#path4138"
       xlink:href="#path4138"
       transform="matrix(0,-1,1,0,270.6388,413.36221)"
       id="use5436"
       width="100%"
       height="100%" />
    <use
       x="0"
       y="0"
       inkscape:tiled-clone-of="#path4138"
       xlink:href="#path4138"
       transform="matrix(0,-1.4998739,1.5005581,0,68.23115,368.34974)"
       id="use5438"
       width="100%"
       height="100%" />
  </g>
</svg>
